# xmcd CD database file
#
# Track frame offsets:
#	150
#	21547
#	37432
#	62007
#	81654
#	103040
#	128470
#	147307
#	166860
#	185022
#	215107
#	233880
#	246732
#	270575
#
# Disc length: 3679 seconds
#
# Revision: 0
# Processed by: cddbd v1.4PL0 Copyright (c) Steve Scherf et al.
# Submitted via: Feurio! 1.65 - http://www.feurio.com
#
DISCID=de0e5d0e
DTITLE=Red Rooster Club - Amazing Blues Party 1997
DYEAR=1997
DGENRE=blues
TTITLE0=Men At Work
TTITLE1=Don't Burn The Bridge
TTITLE2=Ain't No Love
TTITLE3=Nylons
TTITLE4=Nightraiding
TTITLE5=Change My Way Of Living
TTITLE6=Raining In My Heart
TTITLE7=Don't Set Me Free
TTITLE8=Please Come Home
TTITLE9=Red House
TTITLE10=Oh Carol
TTITLE11=I Want To Be Loved
TTITLE12=Little Red Rooster
TTITLE13=Two-Steppin
EXTD=ft. Kaz Lux, Keith Dunn
EXTT0=
EXTT1=
EXTT2=
EXTT3=
EXTT4=
EXTT5=
EXTT6=
EXTT7=
EXTT8=
EXTT9=
EXTT10=
EXTT11=
EXTT12=
EXTT13=
PLAYORDER=
